<svg version="1.1" id="Layer_1" xmlns="http://www.w3.org/2000/svg" xmlns:xlink="http://www.w3.org/1999/xlink" x="0px" y="0px"
	 width="100%" viewBox="0 0 1024 1024" enable-background="new 0 0 1024 1024" xml:space="preserve">
<path fill="#FBFAF9" opacity="1.000000" stroke="none" 
	d="
M569.000000,1025.000000 
	C379.333344,1025.000000 190.166672,1025.000000 1.000000,1025.000000 
	C1.000000,683.666687 1.000000,342.333344 1.000000,1.000000 
	C342.333344,1.000000 683.666687,1.000000 1025.000000,1.000000 
	C1025.000000,342.333344 1025.000000,683.666687 1025.000000,1025.000000 
	C873.166687,1025.000000 721.333313,1025.000000 569.000000,1025.000000 
M389.252777,539.771484 
	C388.916138,539.899597 388.698730,540.136902 388.548981,540.660461 
	C388.548981,540.660461 388.532288,540.476685 387.948914,540.668579 
	C387.256683,541.095459 386.564453,541.522400 384.963623,541.945862 
	C378.565155,543.455322 372.886627,541.531067 368.447906,538.606384 
	C362.743896,544.030823 357.369385,549.141907 352.000946,554.247192 
	C364.125122,566.860168 385.277985,569.966675 401.747131,561.271179 
	C402.609100,560.662842 403.471039,560.054504 404.131622,559.050537 
	C404.131622,559.050537 404.362549,559.429749 404.956451,559.244141 
	C405.711426,558.559875 406.466400,557.875671 407.126282,557.146729 
	C407.126282,557.146729 407.137054,557.251282 407.667908,557.096985 
	C408.046570,556.708435 408.425232,556.319885 408.935852,555.957092 
	C408.935852,555.957092 408.940735,555.822754 409.453094,555.618652 
	C409.760315,555.175842 410.067566,554.733093 410.256958,554.197021 
	C410.256958,554.197021 410.299438,554.341187 410.804840,554.137207 
	C410.966614,553.819458 411.128387,553.501770 411.164764,553.170715 
	C411.164764,553.170715 411.248444,553.265076 411.784485,553.007446 
	C412.221863,552.361511 412.659271,551.715515 413.007690,551.007324 
	C413.007690,551.007324 413.074432,551.092896 413.603821,550.808289 
	C413.844971,550.267273 414.086151,549.726257 414.179138,549.118408 
	C414.179138,549.118408 414.278320,549.247192 414.771667,548.955688 
	C415.011505,548.441956 415.251343,547.928162 415.472839,547.333740 
	C415.472839,547.333740 415.529175,547.273010 415.936981,546.909912 
	C416.128418,546.397278 416.319824,545.884583 416.387421,545.356628 
	C416.387421,545.356628 416.496521,545.296021 416.924042,544.909546 
	C417.088470,544.357239 417.252869,543.804871 417.385040,543.132263 
	C417.385040,543.132263 417.342407,543.249268 417.881439,542.765808 
	C418.606842,539.720520 419.854309,536.694336 419.967102,533.626526 
	C420.449097,520.515625 420.721649,507.393372 420.833466,494.273254 
	C420.970886,478.143188 420.935913,462.010468 420.772797,445.880951 
	C420.757263,444.343384 419.360565,441.529907 418.507996,441.492004 
	C410.774628,441.148315 403.019684,441.290558 394.970398,441.290558 
	C394.970398,443.818756 394.970245,445.633301 394.970428,447.447845 
	C394.972687,472.226837 395.170166,497.008606 394.820953,521.782654 
	C394.746521,527.062805 392.683807,532.314819 391.669830,537.542358 
	C391.669830,537.542358 391.558563,537.623901 391.102478,537.874695 
	C390.975403,538.194641 390.848328,538.514526 390.855682,538.863159 
	C390.855682,538.863159 390.826447,538.728882 390.299194,538.888672 
	C390.091309,539.176331 389.883423,539.463928 389.805878,539.768982 
	C389.805878,539.768982 389.740295,539.655029 389.252777,539.771484 
M725.456909,475.045898 
	C725.396851,475.356873 725.336731,475.667877 725.166992,476.907410 
	C725.207153,481.595001 725.247253,486.282623 725.103088,491.894623 
	C725.103088,515.743835 725.103088,539.593018 725.103088,563.188843 
	C725.899597,563.596863 726.182922,563.866394 726.470276,563.870667 
	C731.279358,563.943359 736.092407,564.110229 740.897095,563.979553 
	C743.542480,563.907715 746.174011,563.322998 748.985718,562.049194 
	C748.985718,533.024536 748.985718,503.999939 748.985718,475.119904 
	C740.904724,475.119904 733.440735,475.119904 725.456909,475.045898 
M155.805771,611.754272 
	C156.170242,612.329163 156.534714,612.903992 156.966263,614.131470 
	C159.661835,616.017029 162.357422,617.902527 165.957855,620.028748 
	C167.615738,620.091675 169.273605,620.209045 170.931503,620.209656 
	C209.136597,620.222961 247.341690,620.233948 285.546783,620.210632 
	C289.354248,620.208313 293.161560,619.982544 297.686615,619.903748 
	C303.454132,617.948425 307.076660,614.178711 307.959167,607.033691 
	C307.968933,580.868652 308.004913,554.703674 307.981140,528.538635 
	C307.957062,502.043915 307.873871,475.549255 307.946472,448.194214 
	C307.680511,446.050690 307.400116,443.908875 307.150726,441.763428 
	C301.582153,393.859436 252.941818,361.687714 207.424774,376.952179 
	C176.114502,387.452301 156.899078,416.481628 154.979767,444.952026 
	C154.909424,446.112976 154.777725,447.273926 154.777527,448.434875 
	C154.768066,500.951324 154.759537,553.467773 154.817780,605.984192 
	C154.819687,607.707092 155.514755,609.429260 155.882874,611.020081 
	C155.882874,611.020081 155.754440,611.049194 155.805771,611.754272 
M788.557434,440.217010 
	C783.399536,440.142822 778.239258,439.943909 773.084839,440.046051 
	C770.440247,440.098450 767.806335,440.688568 765.006104,441.956726 
	C764.994385,462.776733 764.977112,483.596771 764.972717,504.416779 
	C764.968872,522.905029 764.939148,541.393555 765.068176,559.880920 
	C765.077393,561.203125 766.295654,562.516907 767.884888,563.980042 
	C774.590271,563.931274 781.295715,563.882446 788.798340,563.512878 
	C788.882629,554.888855 789.044128,546.264832 789.037537,537.640869 
	C789.012756,505.433502 788.932922,473.226196 788.557434,440.217010 
M552.954285,563.968079 
	C556.549072,563.968079 560.143860,563.968079 564.127197,563.968079 
	C564.127197,559.936951 564.127197,556.483154 564.730896,553.296875 
	C576.557190,568.473450 596.456482,569.458252 611.513611,560.883362 
	C633.734009,548.229065 641.207214,517.465149 628.088501,494.557068 
	C618.563354,477.924072 603.204041,470.351624 584.538757,474.167938 
	C578.359314,475.431396 572.655518,479.020935 566.924744,481.465729 
	C566.924744,468.989075 566.924316,455.842133 566.925354,442.695190 
	C566.925476,440.698578 567.350281,438.351868 563.053955,439.061005 
	C557.042114,439.105804 551.030273,439.150604 544.349731,439.033112 
	C543.895813,439.078766 543.441833,439.124420 542.135620,439.109283 
	C541.762451,440.738525 541.066101,442.367279 541.063477,443.997101 
	C541.002625,482.230042 541.013977,520.463135 541.026001,558.696167 
	C541.026550,560.308594 541.161133,561.921021 541.246765,563.835876 
	C544.078552,563.835876 546.530029,563.835876 549.738159,563.990173 
	C550.505371,563.941345 551.272583,563.892517 552.954285,563.968079 
M433.775269,520.416748 
	C434.690033,549.892517 460.206085,566.775452 482.365082,566.196533 
	C512.658569,565.405151 534.536682,538.067383 527.503601,508.565613 
	C522.000793,485.483063 500.825104,471.184601 477.468903,473.267334 
	C449.976898,475.718903 434.234467,492.970673 433.775269,520.416748 
M896.046387,521.420837 
	C894.506409,513.857544 894.174438,505.774445 891.187866,498.833588 
	C883.802612,481.669495 863.218140,470.412445 840.443176,473.705017 
	C814.486206,477.457642 796.501526,502.740906 802.447998,528.284180 
	C808.274109,553.310303 828.867981,568.224426 854.486572,565.970886 
	C877.026245,563.988159 895.652588,544.442810 896.046387,521.420837 
M692.149414,499.140137 
	C698.048462,498.899109 703.947449,498.658051 710.187683,498.403046 
	C708.641418,488.945618 704.743469,481.968597 696.959534,478.009460 
	C683.519409,471.173401 669.792480,471.132233 656.280640,477.934937 
	C650.288757,480.951599 645.914795,485.638123 643.887329,492.246063 
	C639.099060,507.851746 646.806763,520.768677 664.040283,525.894470 
	C670.694946,527.873779 677.410950,529.652954 684.032654,531.734558 
	C687.424866,532.800964 690.838379,534.309753 690.091064,538.899109 
	C689.372253,543.313660 686.127380,545.222534 682.111816,545.935791 
	C674.831787,547.229065 669.098022,544.525452 664.574524,538.853943 
	C663.793762,537.875061 662.774597,536.251526 661.929077,536.290955 
	C655.029053,536.612122 648.144104,537.257568 641.093140,537.817261 
	C642.637085,547.852234 647.138672,555.145752 655.225464,559.856262 
	C669.552979,568.201904 684.347656,568.273193 698.980469,560.911377 
	C709.176819,555.781494 714.661194,547.395081 714.086914,535.533264 
	C713.535156,524.136414 707.107483,517.267700 697.160278,513.059143 
	C694.276001,511.838806 691.258850,510.916901 688.268311,509.966400 
	C682.590759,508.161743 676.739868,506.789825 671.269714,504.500580 
	C669.099182,503.592285 666.241943,500.586121 666.403381,498.776611 
	C666.612305,496.436279 669.088318,493.500000 671.367432,492.299103 
	C677.183289,489.234650 682.886658,491.115082 686.185486,497.008118 
	C687.587646,499.513000 689.014282,499.822876 692.149414,499.140137 
M737.292664,464.324677 
	C744.358337,463.379883 748.724365,459.970734 750.088196,454.333618 
	C751.470520,448.619720 749.504883,443.055725 744.935608,439.748779 
	C739.760803,436.003540 732.971802,436.005737 727.745728,439.754333 
	C723.099243,443.087219 720.857788,449.009430 722.273071,454.214050 
	C723.983093,460.502472 728.585388,463.768677 737.292664,464.324677 
z"/>
<path fill="#FB7C0E" opacity="1.000000" stroke="none" 
	d="
M307.795319,607.952820 
	C307.076660,614.178711 303.454132,617.948425 297.013977,619.614380 
	C295.525970,619.216858 294.710632,619.014587 293.895233,619.014282 
	C252.207230,618.997986 210.519226,618.991882 168.831238,619.030945 
	C167.571594,619.032104 166.312408,619.524597 165.053009,619.787964 
	C162.357422,617.902527 159.661835,616.017029 156.934204,613.436157 
	C156.519562,612.176941 156.137009,611.613037 155.754440,611.049194 
	C155.754440,611.049194 155.882874,611.020081 155.917419,610.605408 
	C155.968613,556.224304 155.991806,502.257874 155.966064,448.291473 
	C155.965393,446.870911 155.431961,445.450623 155.146973,444.030212 
	C156.899078,416.481628 176.114502,387.452301 207.424774,376.952179 
	C252.941818,361.687714 301.582153,393.859436 307.150726,441.763428 
	C307.400116,443.908875 307.680511,446.050690 307.624939,448.943604 
	C307.202423,450.344055 307.013123,450.995087 307.012939,451.646210 
	C306.998718,502.489380 306.993591,553.332581 307.032104,604.175720 
	C307.033051,605.434937 307.529785,606.693787 307.795319,607.952820 
M253.232101,525.113220 
	C253.232101,525.113220 253.391586,525.233826 252.579117,525.350220 
	C251.054733,525.896912 249.537094,526.893982 248.004868,526.916931 
	C238.357895,527.061401 228.706955,527.042480 219.059586,526.911255 
	C218.030548,526.897217 217.016113,525.808655 216.239227,524.933228 
	C216.239227,524.933228 216.614578,524.917358 217.201050,524.735229 
	C217.451508,524.424500 217.701965,524.113831 218.154099,523.262756 
	C218.785995,522.848206 219.417877,522.433655 220.722626,521.916077 
	C221.457031,521.159180 222.191452,520.402222 223.240738,519.079346 
	C232.292755,511.526398 241.344788,503.973450 248.642471,497.884308 
	C255.330765,498.980957 260.369904,500.942902 265.069244,500.324158 
	C273.065582,499.271423 278.087982,491.018066 276.780579,483.289368 
	C275.478180,475.590424 268.275177,469.707581 260.859680,470.286499 
	C252.301895,470.954590 246.937088,477.107483 246.793945,485.990784 
	C246.763351,487.889954 246.196854,490.452301 244.897659,491.554352 
	C233.120972,501.544128 221.126648,511.277283 209.242233,521.047607 
	C200.737762,514.318359 193.211380,513.830261 187.095901,519.454163 
	C181.698486,524.417725 180.564026,532.512146 184.416779,538.570374 
	C189.106293,545.944458 196.492767,547.448364 206.888580,543.058594 
	C218.742844,553.152954 230.581451,563.373291 242.601639,573.375244 
	C245.754715,575.998901 247.365662,578.534485 247.044037,582.963257 
	C246.475433,590.792725 252.308868,596.992676 260.049103,597.887085 
	C267.517059,598.750183 275.350433,592.801514 276.777557,585.183533 
	C278.137238,577.925415 273.321045,570.217041 266.327576,567.958923 
	C260.523987,566.084961 255.632111,568.073608 250.984192,571.193115 
	C237.560776,559.645142 224.367004,548.294800 211.173233,536.944397 
	C211.438446,536.380127 211.703644,535.815796 211.968842,535.251465 
	C214.754791,535.251465 217.540726,535.252075 220.326675,535.251343 
	C229.157852,535.249207 237.989975,535.319458 246.819733,535.206116 
	C250.070389,535.164429 252.691010,535.383850 255.122330,538.328064 
	C257.900146,541.691833 262.121033,541.884460 266.106689,540.039795 
	C270.153107,538.166992 272.114075,534.708191 271.865540,530.392517 
	C271.625549,526.225586 269.088654,523.507568 265.198212,521.881226 
	C261.044861,520.144958 257.800812,522.071960 253.872009,524.264038 
	C253.632751,524.608459 253.393478,524.952942 253.232101,525.113220 
M273.334229,439.028198 
	C272.879028,438.978699 272.423859,438.929230 271.368469,438.349609 
	C267.921722,438.524506 264.475006,438.699402 260.348541,439.028809 
	C259.889740,438.976532 259.430908,438.924255 258.454651,438.377563 
	C256.646454,438.542267 254.838257,438.706970 252.350525,439.027863 
	C251.891373,438.976807 251.432220,438.925781 250.346634,438.336945 
	C231.153885,438.239532 211.961151,438.134796 192.768280,438.080170 
	C192.188995,438.078522 191.608200,438.600922 190.347748,439.034637 
	C189.888535,438.981476 189.429321,438.928314 188.344482,438.340607 
	C182.904465,438.524139 177.464447,438.707703 171.421631,439.038422 
	C171.008331,439.043335 170.595016,439.048248 169.365540,439.185608 
	C168.914749,440.816498 168.067307,442.449921 168.077652,444.077881 
	C168.143829,454.488678 165.758591,455.044983 178.660004,455.018707 
	C214.940536,454.944885 251.221283,454.993774 287.501953,454.995178 
	C288.833344,454.995239 290.164703,455.004395 291.496094,455.009308 
	C291.347504,454.451416 291.198914,453.893555 291.681335,453.131470 
	C292.120361,453.087494 292.559387,453.043518 293.685974,452.886810 
	C294.059235,448.665405 294.481598,444.446747 294.715027,440.217621 
	C294.734192,439.869659 293.469727,439.450836 292.088959,439.083344 
	C291.381836,439.015167 290.674713,438.946991 289.376160,438.353027 
	C286.258270,438.530548 283.140350,438.708038 279.274384,439.046356 
	C278.515381,438.990570 277.756378,438.934753 276.884949,438.243317 
	C275.925476,438.451050 274.966003,438.658783 273.334229,439.028198 
z"/>
<path fill="#F5790D" opacity="1.000000" stroke="none" 
	d="
M563.980774,439.182404 
	C567.350281,438.351868 566.925476,440.698578 566.925354,442.695190 
	C566.924316,455.842133 566.924744,468.989075 566.924744,481.465729 
	C572.655518,479.020935 578.359314,475.431396 584.538757,474.167938 
	C603.204041,470.351624 618.563354,477.924072 628.088501,494.557068 
	C641.207214,517.465149 633.734009,548.229065 611.513611,560.883362 
	C596.456482,569.458252 576.557190,568.473450 564.108887,553.423950 
	C563.145447,556.445557 563.824158,560.552185 562.198181,561.920654 
	C560.266541,563.546448 556.350342,562.793335 553.301514,563.136169 
	C552.859985,563.185791 552.459351,563.598816 552.039795,563.843628 
	C551.272583,563.892517 550.505371,563.941345 549.265930,563.546509 
	C547.023193,562.469238 545.252747,561.835632 542.987915,561.025085 
	C542.987915,520.524963 542.987915,479.847504 542.987915,439.170074 
	C543.441833,439.124420 543.895813,439.078766 544.794006,439.492432 
	C551.279724,440.131836 557.320923,440.324524 563.363647,440.436188 
	C563.561584,440.439880 563.774719,439.618927 563.980774,439.182404 
M601.995422,537.517517 
	C607.666504,531.454163 610.057190,524.293945 609.040955,516.055420 
	C608.056946,508.078339 604.859802,501.037659 597.399597,497.554810 
	C590.107788,494.150543 582.499634,495.011505 575.631958,499.609955 
	C567.712769,504.912384 565.516541,512.802063 566.054626,521.731323 
	C566.583618,530.510376 569.621216,538.140320 578.315002,541.699951 
	C586.552490,545.072754 594.529907,544.120483 601.995422,537.517517 
z"/>
<path fill="#F6790D" opacity="1.000000" stroke="none" 
	d="
M433.783264,519.937317 
	C434.234467,492.970673 449.976898,475.718903 477.468903,473.267334 
	C500.825104,471.184601 522.000793,485.483063 527.503601,508.565613 
	C534.536682,538.067383 512.658569,565.405151 482.365082,566.196533 
	C460.206085,566.775452 434.690033,549.892517 433.783264,519.937317 
M459.041992,523.070679 
	C460.468079,531.972534 465.482056,538.270142 473.579742,541.822266 
	C482.080780,545.551453 491.936401,542.696228 498.236359,535.252075 
	C505.066803,527.181091 505.842957,514.880676 500.078827,506.051025 
	C494.879730,498.086792 484.829437,494.142731 475.752106,496.504333 
	C463.870331,499.595551 458.370514,508.028687 459.041992,523.070679 
z"/>
<path fill="#F6790D" opacity="1.000000" stroke="none" 
	d="
M896.042297,521.894897 
	C895.652588,544.442810 877.026245,563.988159 854.486572,565.970886 
	C828.867981,568.224426 808.274109,553.310303 802.447998,528.284180 
	C796.501526,502.740906 814.486206,477.457642 840.443176,473.705017 
	C863.218140,470.412445 883.802612,481.669495 891.187866,498.833588 
	C894.174438,505.774445 894.506409,513.857544 896.042297,521.894897 
M827.566895,526.609131 
	C831.748840,538.756775 841.137634,544.773010 853.091858,542.965271 
	C862.825684,541.493164 870.880859,531.561340 871.362061,520.438293 
	C871.829651,509.628998 866.371399,500.962128 856.803650,497.321808 
	C847.532654,493.794342 837.215332,496.572449 830.891541,504.598480 
	C825.883423,510.954529 825.610962,518.295288 827.566895,526.609131 
z"/>
<path fill="#F5780D" opacity="1.000000" stroke="none" 
	d="
M691.725769,499.162872 
	C689.014282,499.822876 687.587646,499.513000 686.185486,497.008118 
	C682.886658,491.115082 677.183289,489.234650 671.367432,492.299103 
	C669.088318,493.500000 666.612305,496.436279 666.403381,498.776611 
	C666.241943,500.586121 669.099182,503.592285 671.269714,504.500580 
	C676.739868,506.789825 682.590759,508.161743 688.268311,509.966400 
	C691.258850,510.916901 694.276001,511.838806 697.160278,513.059143 
	C707.107483,517.267700 713.535156,524.136414 714.086914,535.533264 
	C714.661194,547.395081 709.176819,555.781494 698.980469,560.911377 
	C684.347656,568.273193 669.552979,568.201904 655.225464,559.856262 
	C647.138672,555.145752 642.637085,547.852234 641.093140,537.817261 
	C648.144104,537.257568 655.029053,536.612122 661.929077,536.290955 
	C662.774597,536.251526 663.793762,537.875061 664.574524,538.853943 
	C669.098022,544.525452 674.831787,547.229065 682.111816,545.935791 
	C686.127380,545.222534 689.372253,543.313660 690.091064,538.899109 
	C690.838379,534.309753 687.424866,532.800964 684.032654,531.734558 
	C677.410950,529.652954 670.694946,527.873779 664.040283,525.894470 
	C646.806763,520.768677 639.099060,507.851746 643.887329,492.246063 
	C645.914795,485.638123 650.288757,480.951599 656.280640,477.934937 
	C669.792480,471.132233 683.519409,471.173401 696.959534,478.009460 
	C704.743469,481.968597 708.641418,488.945618 710.187683,498.403046 
	C703.947449,498.658051 698.048462,498.899109 691.725769,499.162872 
z"/>
<path fill="#F77A0D" opacity="1.000000" stroke="none" 
	d="
M401.129456,561.487122 
	C385.277985,569.966675 364.125122,566.860168 352.000946,554.247192 
	C357.369385,549.141907 362.743896,544.030823 368.447906,538.606384 
	C372.886627,541.531067 378.565155,543.455322 385.786011,541.957703 
	C387.249725,541.471924 387.890991,540.974304 388.532288,540.476685 
	C388.532288,540.476685 388.548981,540.660461 388.867432,540.632446 
	C389.370667,540.288025 389.555481,539.971497 389.740295,539.655029 
	C389.740295,539.655029 389.805878,539.768982 390.029510,539.723083 
	C390.444244,539.361084 390.635376,539.044983 390.826477,538.728882 
	C390.826447,538.728882 390.855682,538.863159 391.068787,538.767090 
	C391.374115,538.321960 391.466370,537.972900 391.558594,537.623901 
	C391.558563,537.623901 391.669830,537.542358 391.989929,537.579468 
	C393.540405,533.823914 395.791077,530.043396 395.836792,526.236450 
	C396.150299,500.132080 396.088348,474.021545 395.911987,447.914612 
	C395.884521,443.845184 397.204437,442.665161 401.063843,442.935608 
	C405.209839,443.226227 409.420563,443.306152 413.550690,442.919250 
	C418.075592,442.495331 419.182556,444.193085 419.084503,448.541504 
	C418.372803,480.107788 417.894501,511.679382 417.342407,543.249268 
	C417.342407,543.249268 417.385040,543.132263 417.058441,543.270264 
	C416.653412,544.037476 416.574951,544.666748 416.496521,545.296021 
	C416.496521,545.296021 416.387421,545.356628 416.094391,545.389160 
	C415.710632,546.038818 415.619904,546.655945 415.529175,547.273010 
	C415.529175,547.273010 415.472839,547.333740 415.135132,547.380127 
	C414.624359,548.033386 414.451355,548.640320 414.278320,549.247192 
	C414.278320,549.247192 414.179138,549.118408 413.940857,549.239136 
	C413.493195,549.937622 413.283844,550.515259 413.074463,551.092896 
	C413.074432,551.092896 413.007690,551.007324 412.705322,551.066162 
	C412.018127,551.838379 411.633270,552.551697 411.248413,553.265076 
	C411.248444,553.265076 411.164764,553.170715 410.943848,553.246704 
	C410.581787,553.662231 410.440613,554.001709 410.299438,554.341187 
	C410.299438,554.341187 410.256958,554.197021 410.014893,554.264404 
	C409.495483,554.828796 409.218109,555.325745 408.940735,555.822754 
	C408.940735,555.822754 408.935852,555.957092 408.583618,556.001038 
	C407.866638,556.447083 407.501831,556.849182 407.137054,557.251282 
	C407.137054,557.251282 407.126282,557.146729 406.815857,557.136658 
	C405.791138,557.894287 405.076843,558.662048 404.362549,559.429749 
	C404.362549,559.429749 404.131622,559.050537 403.866943,559.134033 
	C402.778015,559.974060 401.953735,560.730591 401.129456,561.487122 
z"/>
<path fill="#F77A0D" opacity="1.000000" stroke="none" 
	d="
M788.001099,563.833618 
	C781.295715,563.882446 774.590271,563.931274 767.249756,563.537231 
	C766.412109,561.130859 766.035095,559.167419 766.033203,557.203674 
	C765.997986,520.402100 766.019958,483.600494 765.971619,446.799011 
	C765.969055,444.877563 765.447510,442.956757 765.167603,441.035645 
	C767.806335,440.688568 770.440247,440.098450 773.084839,440.046051 
	C778.239258,439.943909 783.399536,440.142822 788.441284,440.928467 
	C788.213196,443.121124 788.003784,444.602295 788.003296,446.083496 
	C787.989380,485.333527 787.997070,524.583557 788.001099,563.833618 
z"/>
<path fill="#F5790D" opacity="1.000000" stroke="none" 
	d="
M748.811768,562.969482 
	C746.174011,563.322998 743.542480,563.907715 740.897095,563.979553 
	C736.092407,564.110229 731.279358,563.943359 726.470276,563.870667 
	C726.182922,563.866394 725.899597,563.596863 725.103088,563.188843 
	C725.103088,539.593018 725.103088,515.743835 725.564270,491.313110 
	C726.349487,487.520874 727.019897,484.297913 726.907288,481.102570 
	C726.775146,477.356445 727.663574,475.518707 731.858276,475.926453 
	C735.485596,476.279083 739.199463,476.265717 742.829712,475.927094 
	C747.113586,475.527496 748.099731,477.258911 748.073303,481.303925 
	C747.907776,506.601807 747.971619,531.901428 748.024719,557.200256 
	C748.028748,559.123840 748.537598,561.046448 748.811768,562.969482 
z"/>
<path fill="#F6790D" opacity="1.000000" stroke="none" 
	d="
M736.904297,464.323425 
	C728.585388,463.768677 723.983093,460.502472 722.273071,454.214050 
	C720.857788,449.009430 723.099243,443.087219 727.745728,439.754333 
	C732.971802,436.005737 739.760803,436.003540 744.935608,439.748779 
	C749.504883,443.055725 751.470520,448.619720 750.088196,454.333618 
	C748.724365,459.970734 744.358337,463.379883 736.904297,464.323425 
z"/>
<path fill="#F5780D" opacity="1.000000" stroke="none" 
	d="
M417.611908,543.007568 
	C417.894501,511.679382 418.372803,480.107788 419.084503,448.541504 
	C419.182556,444.193085 418.075592,442.495331 413.550690,442.919250 
	C409.420563,443.306152 405.209839,443.226227 401.063843,442.935608 
	C397.204437,442.665161 395.884521,443.845184 395.911987,447.914612 
	C396.088348,474.021545 396.150299,500.132080 395.836792,526.236450 
	C395.791077,530.043396 393.540405,533.823914 391.923553,537.598267 
	C392.683807,532.314819 394.746521,527.062805 394.820953,521.782654 
	C395.170166,497.008606 394.972687,472.226837 394.970428,447.447845 
	C394.970245,445.633301 394.970398,443.818756 394.970398,441.290558 
	C403.019684,441.290558 410.774628,441.148315 418.507996,441.492004 
	C419.360565,441.529907 420.757263,444.343384 420.772797,445.880951 
	C420.935913,462.010468 420.970886,478.143188 420.833466,494.273254 
	C420.721649,507.393372 420.449097,520.515625 419.967102,533.626526 
	C419.854309,536.694336 418.606842,539.720520 417.611908,543.007568 
z"/>
<path fill="#FC6201" opacity="1.000000" stroke="none" 
	d="
M542.561768,439.139679 
	C542.987915,479.847504 542.987915,520.524963 542.987915,561.025085 
	C545.252747,561.835632 547.023193,562.469238 548.887573,563.469360 
	C546.530029,563.835876 544.078552,563.835876 541.246765,563.835876 
	C541.161133,561.921021 541.026550,560.308594 541.026001,558.696167 
	C541.013977,520.463135 541.002625,482.230042 541.063477,443.997101 
	C541.066101,442.367279 541.762451,440.738525 542.561768,439.139679 
z"/>
<path fill="#FC6201" opacity="1.000000" stroke="none" 
	d="
M155.063370,444.491119 
	C155.431961,445.450623 155.965393,446.870911 155.966064,448.291473 
	C155.991806,502.257874 155.968613,556.224304 155.919342,610.671265 
	C155.514755,609.429260 154.819687,607.707092 154.817780,605.984192 
	C154.759537,553.467773 154.768066,500.951324 154.777527,448.434875 
	C154.777725,447.273926 154.909424,446.112976 155.063370,444.491119 
z"/>
<path fill="#FC6201" opacity="1.000000" stroke="none" 
	d="
M307.877258,607.493286 
	C307.529785,606.693787 307.033051,605.434937 307.032104,604.175720 
	C306.993591,553.332581 306.998718,502.489380 307.012939,451.646210 
	C307.013123,450.995087 307.202423,450.344055 307.559998,449.373779 
	C307.873871,475.549255 307.957062,502.043915 307.981140,528.538635 
	C308.004913,554.703674 307.968933,580.868652 307.877258,607.493286 
z"/>
<path fill="#FC6201" opacity="1.000000" stroke="none" 
	d="
M748.898743,562.509338 
	C748.537598,561.046448 748.028748,559.123840 748.024719,557.200256 
	C747.971619,531.901428 747.907776,506.601807 748.073303,481.303925 
	C748.099731,477.258911 747.113586,475.527496 742.829712,475.927094 
	C739.199463,476.265717 735.485596,476.279083 731.858276,475.926453 
	C727.663574,475.518707 726.775146,477.356445 726.907288,481.102570 
	C727.019897,484.297913 726.349487,487.520874 725.656372,490.850891 
	C725.247253,486.282623 725.207153,481.595001 725.382935,476.340881 
	C725.786499,475.591736 725.912415,475.373596 725.976685,475.119904 
	C733.440735,475.119904 740.904724,475.119904 748.985718,475.119904 
	C748.985718,503.999939 748.985718,533.024536 748.898743,562.509338 
z"/>
<path fill="#FC6201" opacity="1.000000" stroke="none" 
	d="
M165.505432,619.908325 
	C166.312408,619.524597 167.571594,619.032104 168.831238,619.030945 
	C210.519226,618.991882 252.207230,618.997986 293.895233,619.014282 
	C294.710632,619.014587 295.525970,619.216858 296.655151,619.592712 
	C293.161560,619.982544 289.354248,620.208313 285.546783,620.210632 
	C247.341690,620.233948 209.136597,620.222961 170.931503,620.209656 
	C169.273605,620.209045 167.615738,620.091675 165.505432,619.908325 
z"/>
<path fill="#FC6201" opacity="1.000000" stroke="none" 
	d="
M765.086853,441.496216 
	C765.447510,442.956757 765.969055,444.877563 765.971619,446.799011 
	C766.019958,483.600494 765.997986,520.402100 766.033203,557.203674 
	C766.035095,559.167419 766.412109,561.130859 766.783142,563.464478 
	C766.295654,562.516907 765.077393,561.203125 765.068176,559.880920 
	C764.939148,541.393555 764.968872,522.905029 764.972717,504.416779 
	C764.977112,483.596771 764.994385,462.776733 765.086853,441.496216 
z"/>
<path fill="#FC6201" opacity="1.000000" stroke="none" 
	d="
M788.399719,563.673218 
	C787.997070,524.583557 787.989380,485.333527 788.003296,446.083496 
	C788.003784,444.602295 788.213196,443.121124 788.599487,441.329407 
	C788.932922,473.226196 789.012756,505.433502 789.037537,537.640869 
	C789.044128,546.264832 788.882629,554.888855 788.399719,563.673218 
z"/>
<path fill="#FC6201" opacity="1.000000" stroke="none" 
	d="
M563.517334,439.121704 
	C563.774719,439.618927 563.561584,440.439880 563.363647,440.436188 
	C557.320923,440.324524 551.279724,440.131836 545.128357,439.573547 
	C551.030273,439.150604 557.042114,439.105804 563.517334,439.121704 
z"/>
<path fill="#FC6201" opacity="1.000000" stroke="none" 
	d="
M552.497070,563.905884 
	C552.459351,563.598816 552.859985,563.185791 553.301514,563.136169 
	C556.350342,562.793335 560.266541,563.546448 562.198181,561.920654 
	C563.824158,560.552185 563.145447,556.445557 563.807068,553.290161 
	C564.127197,556.483154 564.127197,559.936951 564.127197,563.968079 
	C560.143860,563.968079 556.549072,563.968079 552.497070,563.905884 
z"/>
<path fill="#F5780D" opacity="1.000000" stroke="none" 
	d="
M401.438293,561.379150 
	C401.953735,560.730591 402.778015,559.974060 403.967651,559.331787 
	C403.471039,560.054504 402.609100,560.662842 401.438293,561.379150 
z"/>
<path fill="#F5780D" opacity="1.000000" stroke="none" 
	d="
M404.659485,559.336914 
	C405.076843,558.662048 405.791138,557.894287 406.863403,557.158997 
	C406.466400,557.875671 405.711426,558.559875 404.659485,559.336914 
z"/>
<path fill="#F5780D" opacity="1.000000" stroke="none" 
	d="
M411.516449,553.136230 
	C411.633270,552.551697 412.018127,551.838379 412.749817,551.097290 
	C412.659271,551.715515 412.221863,552.361511 411.516449,553.136230 
z"/>
<path fill="#F5780D" opacity="1.000000" stroke="none" 
	d="
M388.240601,540.572632 
	C387.890991,540.974304 387.249725,541.471924 386.240326,541.959412 
	C386.564453,541.522400 387.256683,541.095459 388.240601,540.572632 
z"/>
<path fill="#FC6201" opacity="1.000000" stroke="none" 
	d="
M155.780106,611.401733 
	C156.137009,611.613037 156.519562,612.176941 156.900665,613.109863 
	C156.534714,612.903992 156.170242,612.329163 155.780106,611.401733 
z"/>
<path fill="#F5780D" opacity="1.000000" stroke="none" 
	d="
M416.710266,545.102783 
	C416.574951,544.666748 416.653412,544.037476 417.074554,543.330383 
	C417.252869,543.804871 417.088470,544.357239 416.710266,545.102783 
z"/>
<path fill="#F5780D" opacity="1.000000" stroke="none" 
	d="
M415.733093,547.091431 
	C415.619904,546.655945 415.710632,546.038818 416.156311,545.396851 
	C416.319824,545.884583 416.128418,546.397278 415.733093,547.091431 
z"/>
<path fill="#F5780D" opacity="1.000000" stroke="none" 
	d="
M414.524994,549.101440 
	C414.451355,548.640320 414.624359,548.033386 415.144287,547.420471 
	C415.251343,547.928162 415.011505,548.441956 414.524994,549.101440 
z"/>
<path fill="#F5780D" opacity="1.000000" stroke="none" 
	d="
M413.339142,550.950562 
	C413.283844,550.515259 413.493195,549.937622 414.014954,549.272583 
	C414.086151,549.726257 413.844971,550.267273 413.339142,550.950562 
z"/>
<path fill="#F5780D" opacity="1.000000" stroke="none" 
	d="
M409.196899,555.720703 
	C409.218109,555.325745 409.495483,554.828796 410.073853,554.311035 
	C410.067566,554.733093 409.760315,555.175842 409.196899,555.720703 
z"/>
<path fill="#F5780D" opacity="1.000000" stroke="none" 
	d="
M407.402466,557.174133 
	C407.501831,556.849182 407.866638,556.447083 408.517670,555.988159 
	C408.425232,556.319885 408.046570,556.708435 407.402466,557.174133 
z"/>
<path fill="#F5780D" opacity="1.000000" stroke="none" 
	d="
M410.552155,554.239197 
	C410.440613,554.001709 410.581787,553.662231 411.006531,553.253418 
	C411.128387,553.501770 410.966614,553.819458 410.552155,554.239197 
z"/>
<path fill="#F5790D" opacity="1.000000" stroke="none" 
	d="
M725.716797,475.082886 
	C725.912415,475.373596 725.786499,475.591736 725.437805,475.876587 
	C725.336731,475.667877 725.396851,475.356873 725.716797,475.082886 
z"/>
<path fill="#F5780D" opacity="1.000000" stroke="none" 
	d="
M390.562836,538.808777 
	C390.635376,539.044983 390.444244,539.361084 389.964355,539.714355 
	C389.883423,539.463928 390.091309,539.176331 390.562836,538.808777 
z"/>
<path fill="#F5780D" opacity="1.000000" stroke="none" 
	d="
M391.330536,537.749268 
	C391.466370,537.972900 391.374115,538.321960 391.001587,538.752686 
	C390.848328,538.514526 390.975403,538.194641 391.330536,537.749268 
z"/>
<path fill="#F5780D" opacity="1.000000" stroke="none" 
	d="
M389.496521,539.713257 
	C389.555481,539.971497 389.370667,540.288025 388.893188,540.543884 
	C388.698730,540.136902 388.916138,539.899597 389.496521,539.713257 
z"/>
<path fill="#FBF9F8" opacity="1.000000" stroke="none" 
	d="
M220.049759,522.019043 
	C219.417877,522.433655 218.785995,522.848206 217.776794,523.649170 
	C217.137848,524.329529 216.876205,524.623413 216.614563,524.917358 
	C216.614578,524.917358 216.239227,524.933228 215.796768,525.189636 
	C214.678894,526.084290 214.003479,526.722595 212.659134,527.992981 
	C225.845749,527.992981 238.214005,528.053528 250.578781,527.873901 
	C251.528961,527.860107 252.454559,526.153564 253.391586,525.233826 
	C253.391586,525.233826 253.232101,525.113220 253.510040,525.132385 
	C254.024277,524.791443 254.260574,524.431396 254.496887,524.071289 
	C257.800812,522.071960 261.044861,520.144958 265.198212,521.881226 
	C269.088654,523.507568 271.625549,526.225586 271.865540,530.392517 
	C272.114075,534.708191 270.153107,538.166992 266.106689,540.039795 
	C262.121033,541.884460 257.900146,541.691833 255.122330,538.328064 
	C252.691010,535.383850 250.070389,535.164429 246.819733,535.206116 
	C237.989975,535.319458 229.157852,535.249207 220.326675,535.251343 
	C217.540726,535.252075 214.754791,535.251465 211.968842,535.251465 
	C211.703644,535.815796 211.438446,536.380127 211.173233,536.944397 
	C224.367004,548.294800 237.560776,559.645142 250.984192,571.193115 
	C255.632111,568.073608 260.523987,566.084961 266.327576,567.958923 
	C273.321045,570.217041 278.137238,577.925415 276.777557,585.183533 
	C275.350433,592.801514 267.517059,598.750183 260.049103,597.887085 
	C252.308868,596.992676 246.475433,590.792725 247.044037,582.963257 
	C247.365662,578.534485 245.754715,575.998901 242.601639,573.375244 
	C230.581451,563.373291 218.742844,553.152954 206.888580,543.058594 
	C196.492767,547.448364 189.106293,545.944458 184.416779,538.570374 
	C180.564026,532.512146 181.698486,524.417725 187.095901,519.454163 
	C193.211380,513.830261 200.737762,514.318359 209.242233,521.047607 
	C221.126648,511.277283 233.120972,501.544128 244.897659,491.554352 
	C246.196854,490.452301 246.763351,487.889954 246.793945,485.990784 
	C246.937088,477.107483 252.301895,470.954590 260.859680,470.286499 
	C268.275177,469.707581 275.478180,475.590424 276.780579,483.289368 
	C278.087982,491.018066 273.065582,499.271423 265.069244,500.324158 
	C260.369904,500.942902 255.330765,498.980957 248.642471,497.884308 
	C241.344788,503.973450 232.292755,511.526398 222.793152,519.493591 
	C221.580307,520.611572 220.815033,521.315308 220.049759,522.019043 
z"/>
<path fill="#FBF9F8" opacity="1.000000" stroke="none" 
	d="
M289.967590,438.878815 
	C290.674713,438.946991 291.381836,439.015167 292.529083,439.527710 
	C292.978943,444.314545 292.988678,448.657013 292.998413,452.999512 
	C292.559387,453.043518 292.120361,453.087494 290.897369,453.168518 
	C250.135345,453.205536 210.157288,453.205536 170.181717,453.205536 
	C170.181717,447.985229 170.181717,443.519196 170.181717,439.053162 
	C170.595016,439.048248 171.008331,439.043335 172.184479,439.036804 
	C178.288269,438.981873 183.629181,438.928528 188.970108,438.875183 
	C189.429321,438.928314 189.888535,438.981476 191.151093,439.021851 
	C211.627319,438.964264 231.300186,438.919495 250.973068,438.874725 
	C251.432220,438.925781 251.891373,438.976807 253.111221,439.014282 
	C255.571976,438.957825 257.272034,438.914886 258.972107,438.871948 
	C259.430908,438.924255 259.889740,438.976532 261.140533,439.016327 
	C265.277893,438.962494 268.623291,438.921112 271.968658,438.879761 
	C272.423859,438.929230 272.879028,438.978699 274.041504,439.011322 
	C275.498322,438.955963 276.247833,438.917480 276.997375,438.878967 
	C277.756378,438.934753 278.515381,438.990570 280.096924,439.030640 
	C283.935516,438.969574 286.951538,438.924194 289.967590,438.878815 
z"/>
<path fill="#FC6201" opacity="1.000000" stroke="none" 
	d="
M169.773621,439.119385 
	C170.181717,443.519196 170.181717,447.985229 170.181717,453.205536 
	C210.157288,453.205536 250.135345,453.205536 290.581848,453.270599 
	C291.198914,453.893555 291.347504,454.451416 291.496094,455.009308 
	C290.164703,455.004395 288.833344,454.995239 287.501953,454.995178 
	C251.221283,454.993774 214.940536,454.944885 178.660004,455.018707 
	C165.758591,455.044983 168.143829,454.488678 168.077652,444.077881 
	C168.067307,442.449921 168.914749,440.816498 169.773621,439.119385 
z"/>
<path fill="#FC6201" opacity="1.000000" stroke="none" 
	d="
M250.659851,438.605835 
	C231.300186,438.919495 211.627319,438.964264 191.491272,438.944031 
	C191.608200,438.600922 192.188995,438.078522 192.768280,438.080170 
	C211.961151,438.134796 231.153885,438.239532 250.659851,438.605835 
z"/>
<path fill="#FC6201" opacity="1.000000" stroke="none" 
	d="
M252.985352,525.291992 
	C252.454559,526.153564 251.528961,527.860107 250.578781,527.873901 
	C238.214005,528.053528 225.845749,527.992981 212.659134,527.992981 
	C214.003479,526.722595 214.678894,526.084290 215.674606,525.332275 
	C217.016113,525.808655 218.030548,526.897217 219.059586,526.911255 
	C228.706955,527.042480 238.357895,527.061401 248.004868,526.916931 
	C249.537094,526.893982 251.054733,525.896912 252.985352,525.291992 
z"/>
<path fill="#FC6201" opacity="1.000000" stroke="none" 
	d="
M293.342194,452.943176 
	C292.988678,448.657013 292.978943,444.314545 292.885437,439.518494 
	C293.469727,439.450836 294.734192,439.869659 294.715027,440.217621 
	C294.481598,444.446747 294.059235,448.665405 293.342194,452.943176 
z"/>
<path fill="#FC6201" opacity="1.000000" stroke="none" 
	d="
M188.657288,438.607910 
	C183.629181,438.928528 178.288269,438.981873 172.485886,438.963257 
	C177.464447,438.707703 182.904465,438.524139 188.657288,438.607910 
z"/>
<path fill="#FC6201" opacity="1.000000" stroke="none" 
	d="
M271.668579,438.614685 
	C268.623291,438.921112 265.277893,438.962494 261.480408,438.939056 
	C264.475006,438.699402 267.921722,438.524506 271.668579,438.614685 
z"/>
<path fill="#FC6201" opacity="1.000000" stroke="none" 
	d="
M289.671875,438.615906 
	C286.951538,438.924194 283.935516,438.969574 280.470947,438.950226 
	C283.140350,438.708038 286.258270,438.530548 289.671875,438.615906 
z"/>
<path fill="#FC6201" opacity="1.000000" stroke="none" 
	d="
M258.713379,438.624756 
	C257.272034,438.914886 255.571976,438.957825 253.450989,438.936188 
	C254.838257,438.706970 256.646454,438.542267 258.713379,438.624756 
z"/>
<path fill="#FC6201" opacity="1.000000" stroke="none" 
	d="
M276.941162,438.561157 
	C276.247833,438.917480 275.498322,438.955963 274.377655,438.930481 
	C274.966003,438.658783 275.925476,438.451050 276.941162,438.561157 
z"/>
<path fill="#FC6201" opacity="1.000000" stroke="none" 
	d="
M220.386200,521.967590 
	C220.815033,521.315308 221.580307,520.611572 222.635712,519.776611 
	C222.191452,520.402222 221.457031,521.159180 220.386200,521.967590 
z"/>
<path fill="#FC6201" opacity="1.000000" stroke="none" 
	d="
M216.907806,524.826294 
	C216.876205,524.623413 217.137848,524.329529 217.675949,523.919373 
	C217.701965,524.113831 217.451508,524.424500 216.907806,524.826294 
z"/>
<path fill="#FC6201" opacity="1.000000" stroke="none" 
	d="
M254.184448,524.167664 
	C254.260574,524.431396 254.024277,524.791443 253.471100,525.224487 
	C253.393478,524.952942 253.632751,524.608459 254.184448,524.167664 
z"/>
<path fill="#FBF9F8" opacity="1.000000" stroke="none" 
	d="
M601.736694,537.771851 
	C594.529907,544.120483 586.552490,545.072754 578.315002,541.699951 
	C569.621216,538.140320 566.583618,530.510376 566.054626,521.731323 
	C565.516541,512.802063 567.712769,504.912384 575.631958,499.609955 
	C582.499634,495.011505 590.107788,494.150543 597.399597,497.554810 
	C604.859802,501.037659 608.056946,508.078339 609.040955,516.055420 
	C610.057190,524.293945 607.666504,531.454163 601.736694,537.771851 
z"/>
<path fill="#FBF9F8" opacity="1.000000" stroke="none" 
	d="
M459.024841,522.625122 
	C458.370514,508.028687 463.870331,499.595551 475.752106,496.504333 
	C484.829437,494.142731 494.879730,498.086792 500.078827,506.051025 
	C505.842957,514.880676 505.066803,527.181091 498.236359,535.252075 
	C491.936401,542.696228 482.080780,545.551453 473.579742,541.822266 
	C465.482056,538.270142 460.468079,531.972534 459.024841,522.625122 
z"/>
<path fill="#FBF9F8" opacity="1.000000" stroke="none" 
	d="
M827.389404,526.244385 
	C825.610962,518.295288 825.883423,510.954529 830.891541,504.598480 
	C837.215332,496.572449 847.532654,493.794342 856.803650,497.321808 
	C866.371399,500.962128 871.829651,509.628998 871.362061,520.438293 
	C870.880859,531.561340 862.825684,541.493164 853.091858,542.965271 
	C841.137634,544.773010 831.748840,538.756775 827.389404,526.244385 
z"/>
</svg>